<svg width="1300" height="1300" xmlns="http://www.w3.org/2000/svg" t="1702126597349" class="icon" version="1.1" p-id="13665">

 <g>
  <title>background</title>
  <rect fill="#3e3e3e" id="canvas_background" height="1302" width="1302" y="-1" x="-1"/>
 </g>
 <g>
  <title>Layer 1</title>
  <path fill="#ffffff" d="m856.11998,246.13214c19.93301,0 36.12858,16.95907 36.12858,37.83178l0,605.40162c0,20.8727 -16.19557,37.83178 -36.12858,37.83178l-289.02861,0c-19.93301,0 -36.12858,-16.95907 -36.12858,-37.83178l0,-605.40162c0,-20.8727 16.19557,-37.83178 36.12858,-37.83178l289.02861,0m0,-56.74767l-289.02861,0c-49.92151,0 -90.32144,42.39768 -90.32144,94.57944l0,605.40162c0,52.27494 40.48892,94.57944 90.32144,94.57944l289.1176,0c49.92151,0 90.32144,-42.39768 90.32144,-94.57944l0,-605.40162c0,-52.18176 -40.48892,-94.57944 -90.41043,-94.57944z" p-id="13667" id="svg_2" stroke="null"/>
  <rect fill="#3e3e3e" x="327.77127" y="284.00282" width="520.83922" height="785.81234" id="svg_4" stroke="null"/>
  <path fill="#ffffff" d="m604.75353,1019.12396l-40.6,0c-22.3,0 -40.6,-18.3 -40.6,-40.6l0,-40.6c0,-22.3 18.3,-40.6 40.6,-40.6l40.6,0c22.3,0 40.6,18.3 40.6,40.6l0,40.6c0,22.3 -18.3,40.6 -40.6,40.6z" p-id="13668" id="svg_3"/>
  <path fill="#ffffff" d="m725.88745,367.06235c19.93301,0 36.12858,16.95908 36.12858,37.83178l0,605.40162c0,20.8727 -16.19557,37.83178 -36.12858,37.83178l-289.02861,0c-19.933,0 -36.12857,-16.95908 -36.12857,-37.83178l0,-605.40162c0,-20.8727 16.19557,-37.83178 36.12857,-37.83178l289.02861,0m0,-56.74766l-289.02861,0c-49.9215,0 -90.32144,42.39768 -90.32144,94.57944l0,605.40162c0,52.27494 40.48892,94.57944 90.32144,94.57944l289.1176,0c49.92151,0 90.32144,-42.39768 90.32144,-94.57944l0,-605.40162c0,-52.18176 -40.48892,-94.57944 -90.41043,-94.57944z" p-id="13667" id="svg_7" stroke="null"/>
  <rect fill="#ffffff" x="478.88857" y="402.49046" width="200" height="60" id="svg_9" rx="30"/>
 </g>
</svg>